<?xml version="1.0" encoding="utf-8"?>
<!-- Generator: Adobe Illustrator 16.0.4, SVG Export Plug-In . SVG Version: 6.00 Build 0)  -->
<!DOCTYPE svg PUBLIC "-//W3C//DTD SVG 1.1//EN" "http://www.w3.org/Graphics/SVG/1.1/DTD/svg11.dtd">
<svg version="1.1" id="Layer_1" xmlns="http://www.w3.org/2000/svg" xmlns:xlink="http://www.w3.org/1999/xlink" x="0px" y="0px"
	 width="42.842px" height="26px" viewBox="0 0 42.842 26" enable-background="new 0 0 42.842 26" xml:space="preserve">
<rect fill="#1986C8" width="18.837" height="14"/>
<rect x="18.837" y="2" fill="#FFFFFF" width="24.004" height="2"/>
<rect x="18.837" y="6" fill="#FFFFFF" width="24.004" height="2"/>
<rect x="18.837" y="10" fill="#FFFFFF" width="24.004" height="2"/>
<rect y="14" fill="#FFFFFF" width="42.842" height="2"/>
<rect y="18" fill="#FFFFFF" width="42.842" height="2"/>
<rect y="22" fill="#FFFFFF" width="42.842" height="2"/>
<rect x="18.837" fill="#CF2027" width="24.004" height="2"/>
<rect x="18.837" y="4" fill="#CF2027" width="24.004" height="2"/>
<rect x="18.837" y="8" fill="#CF2027" width="24.004" height="2"/>
<rect y="12" fill="#CF2027" width="42.842" height="2"/>
<rect y="16" fill="#CF2027" width="42.842" height="2"/>
<rect y="20" fill="#CF2027" width="42.842" height="2"/>
<rect y="24" fill="#CF2027" width="42.842" height="2"/>
<rect x="8.099" y="2.245" fill="#FFFFFF" width="2.639" height="7.511"/>
<rect x="5.663" y="4.681" fill="#FFFFFF" width="7.512" height="2.639"/>
<polygon fill="#1C1D20" points="127.162,27.49 108.325,27.49 108.325,41.49 108.325,43.49 108.325,45.49 108.325,47.49 
	108.325,49.49 108.325,51.49 108.325,53.49 151.167,53.49 151.167,51.49 151.167,49.49 151.167,47.49 151.167,45.49 151.167,43.49 
	151.167,41.49 151.167,39.49 151.167,37.49 151.167,35.49 151.167,33.49 151.167,31.49 151.167,29.49 151.167,27.49 "/>
<polygon opacity="0.25" fill="#101010" enable-background="new    " points="14.333,26 31.421,10.568 42.842,-0.153 42.842,12.833 
	42.842,26 28.588,26 "/>
</svg>
